<svg xmlns="http://www.w3.org/2000/svg" width="1440" height="1024" viewBox="0 0 1440 1024" fill="none">
<g clip-path="url(#clip0)">
<rect width="1440" height="1024" fill="#F2F4F4"/>
<rect width="1443" height="1024" fill="#F2F4F4"/>
<rect x="-10" y="-9" width="1440" height="679" fill="url(#paint0_linear)"/>
<path d="M477.483 844.657H458.975V841.082C458.974 840.56 458.692 840.079 458.237 839.823L438.412 828.681V823.008H442.334V825.165C442.334 825.964 442.982 826.612 443.781 826.612H455.603C456.402 826.611 457.05 825.963 457.05 825.164C457.05 824.997 457.02 824.83 456.963 824.673L455.777 821.301L456.978 818.002C457.25 817.25 456.861 816.42 456.109 816.149C455.952 816.092 455.785 816.063 455.618 816.062H450.235V813.964C450.235 813.165 449.587 812.517 448.788 812.517H438.412V810.752C438.412 809.953 437.764 809.305 436.965 809.305C436.166 809.305 435.518 809.953 435.518 810.752V828.681L415.693 839.809C415.238 840.065 414.956 840.546 414.955 841.068V844.642H396.447C395.648 844.642 395 845.29 395 846.089V883.944C395 884.744 395.648 885.392 396.447 885.392H477.483C478.282 885.392 478.93 884.744 478.93 883.944V846.104C478.93 845.304 478.282 844.657 477.483 844.657ZM450.235 821.561L450.177 821.503V819.015H453.476L452.883 820.867C452.764 821.189 452.764 821.543 452.883 821.865L453.563 823.717H445.228V823.008H448.788C449.587 823.008 450.235 822.36 450.235 821.561ZM438.412 815.411H447.34V817.567V820.114H438.412V815.411ZM414.955 882.497H397.894V847.551H414.955V882.497ZM435.518 882.497H427.921V865.972H435.518V882.497ZM446.009 882.497H438.412V865.972H446.009V882.497ZM456.139 882.497H448.903V864.525C448.903 863.726 448.255 863.078 447.456 863.078H426.474C425.675 863.078 425.027 863.726 425.027 864.525V882.497H417.791V841.979L436.965 831.184L456.081 841.922L456.139 846.089V882.497ZM476.036 882.497H458.975V847.551H476.036V882.497Z" fill="#6BA1B4"/>
<path d="M436.965 835.612C433.614 835.62 430.902 838.339 430.902 841.69C430.91 845.039 433.631 847.747 436.98 847.739C440.328 847.731 443.036 845.01 443.028 841.661C443.02 838.318 440.308 835.612 436.965 835.612ZM436.965 844.845C435.215 844.837 433.803 843.411 433.81 841.661C433.818 839.922 435.226 838.514 436.965 838.506C438.718 838.514 440.134 839.937 440.134 841.69H440.149C440.141 843.44 438.715 844.853 436.965 844.845Z" fill="#6BA1B4"/>
<path d="M404.276 850.734H401.382V856.523H404.276V850.734Z" fill="#6BA1B4"/>
<path d="M411.41 850.734H408.516V856.523H411.41V850.734Z" fill="#6BA1B4"/>
<path d="M427.979 850.734H422.19V853.628H427.979V850.734Z" fill="#6BA1B4"/>
<path d="M439.859 850.734H434.071V853.628H439.859V850.734Z" fill="#6BA1B4"/>
<path d="M451.739 850.734H445.951V853.628H451.739V850.734Z" fill="#6BA1B4"/>
<path d="M427.979 857.478H422.19V860.372H427.979V857.478Z" fill="#6BA1B4"/>
<path d="M439.859 857.478H434.071V860.372H439.859V857.478Z" fill="#6BA1B4"/>
<path d="M451.739 857.478H445.951V860.372H451.739V857.478Z" fill="#6BA1B4"/>
<path d="M404.276 862.123H401.382V867.911H404.276V862.123Z" fill="#6BA1B4"/>
<path d="M411.41 862.123H408.516V867.911H411.41V862.123Z" fill="#6BA1B4"/>
<path d="M404.276 873.526H401.382V879.314H404.276V873.526Z" fill="#6BA1B4"/>
<path d="M411.41 873.526H408.516V879.314H411.41V873.526Z" fill="#6BA1B4"/>
<path d="M465.415 850.734H462.521V856.523H465.415V850.734Z" fill="#6BA1B4"/>
<path d="M472.548 850.734H469.654V856.523H472.548V850.734Z" fill="#6BA1B4"/>
<path d="M465.415 862.123H462.521V867.911H465.415V862.123Z" fill="#6BA1B4"/>
<path d="M472.548 862.123H469.654V867.911H472.548V862.123Z" fill="#6BA1B4"/>
<path d="M465.415 873.526H462.521V879.314H465.415V873.526Z" fill="#6BA1B4"/>
<path d="M472.548 873.526H469.654V879.314H472.548V873.526Z" fill="#6BA1B4"/>
<path d="M1337.48 845.352H1318.97V841.778C1318.97 841.256 1318.69 840.774 1318.24 840.519L1298.41 829.376V823.704H1302.33V825.86C1302.33 826.659 1302.98 827.307 1303.78 827.307H1315.6C1316.4 827.307 1317.05 826.658 1317.05 825.859C1317.05 825.692 1317.02 825.526 1316.96 825.368L1315.78 821.996L1316.98 818.697C1317.25 817.945 1316.86 817.116 1316.11 816.844C1315.95 816.787 1315.79 816.758 1315.62 816.758H1310.23V814.66C1310.23 813.86 1309.59 813.212 1308.79 813.212H1298.41V811.447C1298.41 810.648 1297.76 810 1296.96 810C1296.17 810 1295.52 810.648 1295.52 811.447V829.376L1275.69 840.504C1275.24 840.76 1274.96 841.241 1274.96 841.763V845.337H1256.45C1255.65 845.337 1255 845.985 1255 846.784V884.64C1255 885.439 1255.65 886.087 1256.45 886.087H1337.48C1338.28 886.087 1338.93 885.439 1338.93 884.64V846.799C1338.93 846 1338.28 845.352 1337.48 845.352ZM1310.23 822.257L1310.18 822.199V819.71H1313.48L1312.88 821.562C1312.76 821.884 1312.76 822.238 1312.88 822.561L1313.56 824.413H1305.23V823.704H1308.79C1309.59 823.704 1310.23 823.056 1310.23 822.257ZM1298.41 816.107H1307.34V818.263V820.81H1298.41V816.107ZM1274.96 883.193H1257.89V848.246H1274.96V883.193ZM1295.52 883.193H1287.92V866.667H1295.52V883.193ZM1306.01 883.193H1298.41V866.667H1306.01V883.193ZM1316.14 883.193H1308.9V865.22C1308.9 864.421 1308.26 863.773 1307.46 863.773H1286.47C1285.67 863.773 1285.03 864.421 1285.03 865.22V883.193H1277.79V842.675L1296.96 831.88L1316.08 842.617L1316.14 846.784V883.193ZM1336.04 883.193H1318.97V848.246H1336.04V883.193Z" fill="#6BA1B4"/>
<path d="M1296.97 836.308C1293.61 836.316 1290.9 839.034 1290.9 842.385C1290.91 845.734 1293.63 848.442 1296.98 848.434C1300.33 848.426 1303.04 845.705 1303.03 842.356C1303.02 839.013 1300.31 836.308 1296.97 836.308ZM1296.97 845.54C1295.21 845.532 1293.8 844.107 1293.81 842.356C1293.82 840.618 1295.23 839.21 1296.97 839.202C1298.72 839.21 1300.13 840.633 1300.13 842.385H1300.15C1300.14 844.136 1298.72 845.548 1296.97 845.54Z" fill="#6BA1B4"/>
<path d="M1264.28 851.43H1261.38V857.218H1264.28V851.43Z" fill="#6BA1B4"/>
<path d="M1271.41 851.43H1268.52V857.218H1271.41V851.43Z" fill="#6BA1B4"/>
<path d="M1287.98 851.43H1282.19V854.324H1287.98V851.43Z" fill="#6BA1B4"/>
<path d="M1299.86 851.43H1294.07V854.324H1299.86V851.43Z" fill="#6BA1B4"/>
<path d="M1311.74 851.43H1305.95V854.324H1311.74V851.43Z" fill="#6BA1B4"/>
<path d="M1287.98 858.173H1282.19V861.067H1287.98V858.173Z" fill="#6BA1B4"/>
<path d="M1299.86 858.173H1294.07V861.067H1299.86V858.173Z" fill="#6BA1B4"/>
<path d="M1311.74 858.173H1305.95V861.067H1311.74V858.173Z" fill="#6BA1B4"/>
<path d="M1264.28 862.818H1261.38V868.606H1264.28V862.818Z" fill="#6BA1B4"/>
<path d="M1271.41 862.818H1268.52V868.606H1271.41V862.818Z" fill="#6BA1B4"/>
<path d="M1264.28 874.221H1261.38V880.009H1264.28V874.221Z" fill="#6BA1B4"/>
<path d="M1271.41 874.221H1268.52V880.009H1271.41V874.221Z" fill="#6BA1B4"/>
<path d="M1325.41 851.43H1322.52V857.218H1325.41V851.43Z" fill="#6BA1B4"/>
<path d="M1332.55 851.43H1329.65V857.218H1332.55V851.43Z" fill="#6BA1B4"/>
<path d="M1325.41 862.818H1322.52V868.606H1325.41V862.818Z" fill="#6BA1B4"/>
<path d="M1332.55 862.818H1329.65V868.606H1332.55V862.818Z" fill="#6BA1B4"/>
<path d="M1325.41 874.221H1322.52V880.009H1325.41V874.221Z" fill="#6BA1B4"/>
<path d="M1332.55 874.221H1329.65V880.009H1332.55V874.221Z" fill="#6BA1B4"/>
<path d="M763.167 875.206H760.701V877.672H763.167V875.206Z" fill="#6BA1B4"/>
<path d="M769.334 875.206H766.868V877.672H769.334V875.206Z" fill="#6BA1B4"/>
<path d="M763.167 867.806H760.701V870.272H763.167V867.806Z" fill="#6BA1B4"/>
<path d="M769.334 867.806H766.868V870.272H769.334V867.806Z" fill="#6BA1B4"/>
<path d="M763.167 860.406H760.701V862.873H763.167V860.406Z" fill="#6BA1B4"/>
<path d="M769.334 860.406H766.868V862.873H769.334V860.406Z" fill="#6BA1B4"/>
<path d="M763.167 853.022H760.701V855.488H763.167V853.022Z" fill="#6BA1B4"/>
<path d="M769.334 853.022H766.868V855.488H769.334V853.022Z" fill="#6BA1B4"/>
<path d="M763.167 845.622H760.701V848.088H763.167V845.622Z" fill="#6BA1B4"/>
<path d="M769.334 845.622H766.868V848.088H769.334V845.622Z" fill="#6BA1B4"/>
<path d="M777.967 882.59V841.226L758.25 829.399V808.638H706.467V882.59H704V885.056H780.418V882.59H777.967ZM737.299 882.605H727.433V867.822H737.299V882.605ZM755.768 882.605H739.75V865.339H724.966V882.59H708.933V811.105H755.768V882.605ZM758.234 882.605V832.277L775.485 842.633V882.605H758.234Z" fill="#6BA1B4"/>
<path d="M711.4 867.806V877.672H721.266V867.806H711.4ZM718.8 875.206H713.867V870.272H718.8V875.206Z" fill="#6BA1B4"/>
<path d="M743.45 867.806V877.672H753.317V867.806H743.45ZM750.85 875.206H745.917V870.272H750.85V875.206Z" fill="#6BA1B4"/>
<path d="M711.4 850.539V860.406H721.266V850.539H711.4ZM718.8 857.955H713.867V853.022H718.8V857.955Z" fill="#6BA1B4"/>
<path d="M743.45 850.539V860.406H753.317V850.539H743.45ZM750.85 857.955H745.917V853.022H750.85V857.955Z" fill="#6BA1B4"/>
<path d="M711.4 833.289V843.155H721.266V833.289H711.4ZM718.8 840.689H713.867V835.755H718.8V840.689Z" fill="#6BA1B4"/>
<path d="M743.45 833.289V843.155H753.317V833.289H743.45ZM750.85 840.689H745.917V835.755H750.85V840.689Z" fill="#6BA1B4"/>
<path d="M711.4 816.038V825.905H721.266V816.038H711.4ZM718.8 823.438H713.867V818.505H718.8V823.438Z" fill="#6BA1B4"/>
<path d="M743.45 816.038V825.905H753.317V816.038H743.45ZM750.85 823.438H745.917V818.505H750.85V823.438Z" fill="#6BA1B4"/>
<path d="M727.433 850.539V860.406H737.3V850.539H727.433ZM734.817 857.955H729.884V853.022H734.817V857.955Z" fill="#6BA1B4"/>
<path d="M727.433 833.289V843.155H737.3V833.289H727.433ZM734.817 840.689H729.884V835.755H734.817V840.689Z" fill="#6BA1B4"/>
<path d="M727.433 816.038V825.905H737.3V816.038H727.433ZM734.817 823.438H729.884V818.505H734.817V823.438Z" fill="#6BA1B4"/>
<path d="M937.477 883.132H933.072V864.644C933.952 863.87 934.509 862.737 934.509 861.475C934.509 859.148 932.616 857.255 930.289 857.255H921.489L920.13 835.514C920.086 834.805 919.498 834.253 918.788 834.253H913.038C912.327 834.253 911.74 834.805 911.695 835.514L910.336 857.255H907.113L905.754 835.514C905.71 834.805 905.122 834.253 904.412 834.253H898.662C897.951 834.253 897.363 834.805 897.319 835.514L895.96 857.255H892.737L891.378 835.514C891.334 834.805 890.746 834.253 890.036 834.253H884.285C883.575 834.253 882.987 834.805 882.943 835.514L881.584 857.255H877.838L877.005 819.755C876.988 819.024 876.391 818.44 875.66 818.44H867.034C866.303 818.44 865.706 819.024 865.69 819.755L864.728 863.006H854.095C851.768 863.006 849.875 864.899 849.875 867.226C849.875 868.487 850.432 869.621 851.313 870.395V883.132H848.345C847.602 883.132 847 883.734 847 884.477C847 885.22 847.602 885.822 848.345 885.822H937.477C938.22 885.822 938.822 885.22 938.822 884.477C938.822 883.734 938.22 883.132 937.477 883.132ZM864.6 868.756H859.846C859.104 868.756 858.501 869.358 858.501 870.101C858.501 870.844 859.104 871.446 859.846 871.446H864.541L864.281 883.132H854.003V871.444C854.034 871.444 854.064 871.446 854.095 871.446C854.838 871.446 855.44 870.844 855.44 870.101C855.44 869.358 854.838 868.756 854.095 868.756C853.252 868.756 852.565 868.069 852.565 867.226C852.565 866.382 853.252 865.696 854.095 865.696H864.668L864.6 868.756ZM914.301 836.943H917.524L918.794 857.255H913.032L914.301 836.943ZM899.925 836.943H903.148L904.418 857.255H898.656L899.925 836.943ZM885.549 836.943H888.772L890.042 857.255H884.279L885.549 836.943ZM870.002 883.132H866.972L868.349 821.129H874.344L875.147 857.255H872.785C870.457 857.255 868.564 859.148 868.564 861.475C868.564 862.737 869.121 863.87 870.002 864.644V883.132ZM930.289 863.005H927.414C926.671 863.005 926.069 863.608 926.069 864.35C926.069 865.093 926.671 865.695 927.414 865.695H930.289C930.32 865.695 930.351 865.694 930.382 865.693V883.132H872.692V865.693C872.723 865.694 872.753 865.695 872.784 865.695H921.664C922.407 865.695 923.009 865.093 923.009 864.35C923.009 863.608 922.407 863.005 921.664 863.005H872.784C871.941 863.005 871.254 862.319 871.254 861.475C871.254 860.632 871.941 859.945 872.784 859.945H930.289C931.133 859.945 931.819 860.631 931.819 861.475C931.819 862.319 931.133 863.005 930.289 863.005Z" fill="#6BA1B4"/>
<path d="M921.663 794C917.611 794 913.748 795.414 910.66 798.005C908.443 796.342 905.756 795.438 902.974 795.438C899.597 795.438 896.373 796.771 893.976 799.128C892.734 798.593 891.39 798.313 890.036 798.313C886.037 798.313 882.472 800.707 880.908 804.291C880.368 804.139 879.815 804.063 879.254 804.063C876.475 804.063 874.086 805.87 873.232 808.401C873.084 808.384 872.934 808.376 872.784 808.376C870.457 808.376 868.564 810.269 868.564 812.596C868.564 813.339 869.166 813.942 869.909 813.942C870.652 813.942 871.254 813.339 871.254 812.596C871.254 811.753 871.941 811.066 872.785 811.066C873.051 811.066 873.313 811.142 873.562 811.291C873.965 811.532 874.465 811.545 874.88 811.326C875.296 811.107 875.567 810.687 875.595 810.218C875.713 808.275 877.32 806.754 879.254 806.754C879.865 806.754 880.468 806.919 881.047 807.245C881.409 807.449 881.846 807.474 882.23 807.312C882.614 807.15 882.9 806.819 883.007 806.417C883.852 803.229 886.742 801.003 890.036 801.003C891.284 801.003 892.52 801.329 893.611 801.947C894.169 802.262 894.873 802.141 895.292 801.655C897.228 799.414 900.028 798.128 902.974 798.128C905.493 798.128 907.915 799.068 909.793 800.775C910.317 801.252 911.121 801.24 911.631 800.748C914.346 798.131 917.909 796.69 921.663 796.69C929.641 796.69 936.132 803.181 936.132 811.159C936.132 819.137 929.641 825.627 921.663 825.627C916.366 825.627 911.497 822.735 908.956 818.08C908.617 817.459 907.855 817.207 907.212 817.503C905.863 818.124 904.437 818.439 902.974 818.439C900.028 818.439 897.228 817.153 895.292 814.912C894.873 814.427 894.17 814.305 893.612 814.62C892.521 815.238 891.284 815.564 890.036 815.564C887.763 815.564 885.66 814.523 884.266 812.709C884.012 812.379 883.621 812.185 883.206 812.183C883.203 812.183 883.201 812.183 883.199 812.183C882.786 812.183 882.396 812.373 882.141 812.698C881.429 813.606 880.377 814.126 879.254 814.126C878.511 814.126 877.909 814.728 877.909 815.471C877.909 816.214 878.511 816.816 879.254 816.816C880.679 816.816 882.035 816.34 883.14 815.476C884.985 817.256 887.428 818.254 890.036 818.254C891.39 818.254 892.734 817.974 893.976 817.438C896.373 819.796 899.597 821.129 902.974 821.129C904.424 821.129 905.843 820.886 907.208 820.405C910.351 825.314 915.785 828.317 921.663 828.317C931.125 828.317 938.822 820.62 938.822 811.159C938.822 801.697 931.125 794 921.663 794Z" fill="#6BA1B4"/>
<path d="M881.41 868.756C880.667 868.756 880.065 869.358 880.065 870.101V872.976C880.065 873.719 880.667 874.321 881.41 874.321C882.153 874.321 882.755 873.719 882.755 872.976V870.101C882.755 869.358 882.153 868.756 881.41 868.756Z" fill="#6BA1B4"/>
<path d="M887.16 868.756C886.418 868.756 885.815 869.358 885.815 870.101V872.976C885.815 873.719 886.418 874.321 887.16 874.321C887.903 874.321 888.506 873.719 888.506 872.976V870.101C888.506 869.358 887.903 868.756 887.16 868.756Z" fill="#6BA1B4"/>
<path d="M892.911 868.756C892.168 868.756 891.566 869.358 891.566 870.101V872.976C891.566 873.719 892.168 874.321 892.911 874.321C893.654 874.321 894.256 873.719 894.256 872.976V870.101C894.256 869.358 893.654 868.756 892.911 868.756Z" fill="#6BA1B4"/>
<path d="M898.661 868.756C897.919 868.756 897.316 869.358 897.316 870.101V872.976C897.316 873.719 897.919 874.321 898.661 874.321C899.404 874.321 900.007 873.719 900.007 872.976V870.101C900.007 869.358 899.404 868.756 898.661 868.756Z" fill="#6BA1B4"/>
<path d="M904.412 868.756C903.669 868.756 903.067 869.358 903.067 870.101V872.976C903.067 873.719 903.669 874.321 904.412 874.321C905.155 874.321 905.757 873.719 905.757 872.976V870.101C905.757 869.358 905.155 868.756 904.412 868.756Z" fill="#6BA1B4"/>
<path d="M910.162 868.756C909.419 868.756 908.817 869.358 908.817 870.101V872.976C908.817 873.719 909.419 874.321 910.162 874.321C910.905 874.321 911.507 873.719 911.507 872.976V870.101C911.507 869.358 910.905 868.756 910.162 868.756Z" fill="#6BA1B4"/>
<path d="M915.912 868.756C915.17 868.756 914.567 869.358 914.567 870.101V872.976C914.567 873.719 915.17 874.321 915.912 874.321C916.655 874.321 917.257 873.719 917.257 872.976V870.101C917.257 869.358 916.655 868.756 915.912 868.756Z" fill="#6BA1B4"/>
<path d="M921.663 868.756C920.921 868.756 920.318 869.358 920.318 870.101V872.976C920.318 873.719 920.921 874.321 921.663 874.321C922.406 874.321 923.008 873.719 923.008 872.976V870.101C923.008 869.358 922.406 868.756 921.663 868.756Z" fill="#6BA1B4"/>
<path d="M1036.67 832.213H1040.57V836.109C1040.57 836.423 1040.69 836.725 1040.92 836.947C1041.14 837.169 1041.44 837.294 1041.75 837.294H1048.53C1048.84 837.294 1049.14 837.169 1049.37 836.947C1049.59 836.725 1049.71 836.423 1049.71 836.109V832.213H1053.61C1053.92 832.213 1054.23 832.088 1054.45 831.866C1054.67 831.643 1054.8 831.342 1054.8 831.027V824.253C1054.8 823.938 1054.67 823.637 1054.45 823.414C1054.23 823.192 1053.92 823.067 1053.61 823.067H1049.71V819.172C1049.71 818.857 1049.59 818.556 1049.37 818.333C1049.14 818.111 1048.84 817.986 1048.53 817.986H1041.75C1041.44 817.986 1041.14 818.111 1040.92 818.333C1040.69 818.556 1040.57 818.857 1040.57 819.172V823.067H1036.67C1036.36 823.067 1036.06 823.192 1035.83 823.414C1035.61 823.637 1035.49 823.938 1035.49 824.253V831.027C1035.49 831.342 1035.61 831.643 1035.83 831.866C1036.06 832.088 1036.36 832.213 1036.67 832.213ZM1037.86 825.438H1041.75C1042.07 825.438 1042.37 825.313 1042.59 825.091C1042.81 824.869 1042.94 824.567 1042.94 824.253V820.357H1047.34V824.253C1047.34 824.567 1047.47 824.869 1047.69 825.091C1047.91 825.313 1048.21 825.438 1048.53 825.438H1052.42V829.842H1048.53C1048.21 829.842 1047.91 829.967 1047.69 830.189C1047.47 830.411 1047.34 830.713 1047.34 831.027V834.923H1042.94V831.027C1042.94 830.713 1042.81 830.411 1042.59 830.189C1042.37 829.967 1042.07 829.842 1041.75 829.842H1037.86V825.438Z" fill="#6BA1B4"/>
<path d="M1040.7 849.867C1041.01 849.867 1041.31 849.742 1041.53 849.52C1041.76 849.297 1041.88 848.996 1041.88 848.681V841.907C1041.88 841.592 1041.76 841.291 1041.53 841.068C1041.31 840.846 1041.01 840.721 1040.7 840.721H1033.92C1033.61 840.721 1033.3 840.846 1033.08 841.068C1032.86 841.291 1032.73 841.592 1032.73 841.907V848.681C1032.73 848.996 1032.86 849.297 1033.08 849.52C1033.3 849.742 1033.61 849.867 1033.92 849.867H1040.7ZM1035.11 843.092H1039.51V847.496H1035.11V843.092Z" fill="#6BA1B4"/>
<path d="M1048.4 841.907V848.681C1048.4 848.996 1048.53 849.297 1048.75 849.52C1048.97 849.742 1049.27 849.867 1049.59 849.867H1056.36C1056.68 849.867 1056.98 849.742 1057.2 849.52C1057.42 849.297 1057.55 848.996 1057.55 848.681V841.907C1057.55 841.592 1057.42 841.291 1057.2 841.068C1056.98 840.846 1056.68 840.721 1056.36 840.721H1049.59C1049.27 840.721 1048.97 840.846 1048.75 841.068C1048.53 841.291 1048.4 841.592 1048.4 841.907ZM1050.77 843.092H1055.18V847.496H1050.77V843.092Z" fill="#6BA1B4"/>
<path d="M1084.1 829.973H1065.8V807.186C1065.8 806.871 1065.68 806.57 1065.46 806.347C1065.23 806.125 1064.93 806 1064.62 806H1025.66C1025.35 806 1025.05 806.125 1024.82 806.347C1024.6 806.57 1024.48 806.871 1024.48 807.186V829.973H1006.19C1005.87 829.973 1005.57 830.098 1005.35 830.32C1005.12 830.542 1005 830.844 1005 831.158V885.096C1005 885.41 1005.12 885.712 1005.35 885.934C1005.57 886.157 1005.87 886.282 1006.19 886.282H1084.1C1084.41 886.282 1084.71 886.157 1084.93 885.934C1085.16 885.712 1085.28 885.41 1085.28 885.096V831.158C1085.28 830.844 1085.16 830.542 1084.93 830.32C1084.71 830.098 1084.41 829.973 1084.1 829.973ZM1007.37 832.344H1024.48V883.91H1007.37V832.344ZM1026.85 831.158V808.371H1063.43V883.91H1055.66V858.127C1055.66 857.812 1055.54 857.511 1055.31 857.288C1055.09 857.066 1054.79 856.941 1054.48 856.941H1035.81C1035.49 856.941 1035.19 857.066 1034.97 857.288C1034.74 857.511 1034.62 857.812 1034.62 858.127V883.91H1026.85V831.158ZM1036.99 859.312H1043.96V883.91H1036.99V859.312ZM1046.33 883.91V859.312H1053.29V883.91H1046.33ZM1082.91 883.91H1065.8V832.344H1082.91V883.91Z" fill="#6BA1B4"/>
<path d="M1070.97 849.867H1077.74C1078.06 849.867 1078.36 849.742 1078.58 849.52C1078.81 849.297 1078.93 848.996 1078.93 848.681V841.907C1078.93 841.592 1078.81 841.291 1078.58 841.068C1078.36 840.846 1078.06 840.721 1077.74 840.721H1070.97C1070.66 840.721 1070.35 840.846 1070.13 841.068C1069.91 841.291 1069.78 841.592 1069.78 841.907V848.681C1069.78 848.996 1069.91 849.297 1070.13 849.52C1070.35 849.742 1070.66 849.867 1070.97 849.867ZM1072.16 843.092H1076.56V847.496H1072.16V843.092Z" fill="#6BA1B4"/>
<path d="M1070.97 864.563H1077.74C1078.06 864.563 1078.36 864.438 1078.58 864.216C1078.81 863.993 1078.93 863.692 1078.93 863.377V856.602C1078.93 856.288 1078.81 855.986 1078.58 855.764C1078.36 855.542 1078.06 855.417 1077.74 855.417H1070.97C1070.66 855.417 1070.35 855.542 1070.13 855.764C1069.91 855.986 1069.78 856.288 1069.78 856.602V863.377C1069.78 863.692 1069.91 863.993 1070.13 864.216C1070.35 864.438 1070.66 864.563 1070.97 864.563ZM1072.16 857.788H1076.56V862.192H1072.16V857.788Z" fill="#6BA1B4"/>
<path d="M1070.97 879.259H1077.74C1077.9 879.259 1078.05 879.229 1078.2 879.169C1078.34 879.11 1078.47 879.022 1078.58 878.912C1078.69 878.802 1078.78 878.671 1078.84 878.528C1078.9 878.384 1078.93 878.23 1078.93 878.074V871.299C1078.93 870.985 1078.81 870.683 1078.58 870.461C1078.36 870.238 1078.06 870.113 1077.74 870.113H1070.97C1070.66 870.113 1070.35 870.238 1070.13 870.461C1069.91 870.683 1069.78 870.985 1069.78 871.299V878.074C1069.78 878.23 1069.81 878.384 1069.87 878.528C1069.93 878.671 1070.02 878.802 1070.13 878.912C1070.24 879.022 1070.37 879.11 1070.52 879.169C1070.66 879.229 1070.81 879.259 1070.97 879.259ZM1072.16 872.485H1076.56V876.888H1072.16V872.485Z" fill="#6BA1B4"/>
<path d="M1019.31 840.721H1012.54C1012.22 840.721 1011.92 840.846 1011.7 841.068C1011.48 841.291 1011.35 841.592 1011.35 841.907V848.681C1011.35 848.996 1011.48 849.297 1011.7 849.52C1011.92 849.742 1012.22 849.867 1012.54 849.867H1019.31C1019.63 849.867 1019.93 849.742 1020.15 849.52C1020.37 849.297 1020.5 848.996 1020.5 848.681V841.907C1020.5 841.592 1020.37 841.291 1020.15 841.068C1019.93 840.846 1019.63 840.721 1019.31 840.721ZM1018.13 847.496H1013.72V843.092H1018.13V847.496Z" fill="#6BA1B4"/>
<path d="M1019.31 855.417H1012.54C1012.22 855.417 1011.92 855.542 1011.7 855.764C1011.48 855.986 1011.35 856.288 1011.35 856.602V863.377C1011.35 863.692 1011.48 863.993 1011.7 864.216C1011.92 864.438 1012.22 864.563 1012.54 864.563H1019.31C1019.63 864.563 1019.93 864.438 1020.15 864.216C1020.37 863.993 1020.5 863.692 1020.5 863.377V856.602C1020.5 856.288 1020.37 855.986 1020.15 855.764C1019.93 855.542 1019.63 855.417 1019.31 855.417ZM1018.13 862.192H1013.72V857.788H1018.13V862.192Z" fill="#6BA1B4"/>
<path d="M1019.31 870.113H1012.54C1012.22 870.113 1011.92 870.238 1011.7 870.461C1011.48 870.683 1011.35 870.985 1011.35 871.299V878.074C1011.35 878.23 1011.38 878.384 1011.44 878.528C1011.5 878.671 1011.59 878.802 1011.7 878.912C1011.81 879.022 1011.94 879.11 1012.08 879.169C1012.23 879.229 1012.38 879.259 1012.54 879.259H1019.31C1019.47 879.259 1019.62 879.229 1019.77 879.169C1019.91 879.11 1020.04 879.022 1020.15 878.912C1020.26 878.802 1020.35 878.671 1020.41 878.528C1020.47 878.384 1020.5 878.23 1020.5 878.074V871.299C1020.5 870.985 1020.37 870.683 1020.15 870.461C1019.93 870.238 1019.63 870.113 1019.31 870.113ZM1018.13 876.888H1013.72V872.485H1018.13V876.888Z" fill="#6BA1B4"/>
<path d="M133.672 832.213H137.568V836.109C137.568 836.423 137.693 836.725 137.915 836.947C138.138 837.169 138.439 837.294 138.754 837.294H145.528C145.843 837.294 146.144 837.169 146.367 836.947C146.589 836.725 146.714 836.423 146.714 836.109V832.213H150.609C150.924 832.213 151.225 832.088 151.448 831.866C151.67 831.643 151.795 831.342 151.795 831.027V824.253C151.795 823.938 151.67 823.637 151.448 823.414C151.225 823.192 150.924 823.067 150.609 823.067H146.714V819.172C146.714 818.857 146.589 818.556 146.367 818.333C146.144 818.111 145.843 817.986 145.528 817.986H138.754C138.439 817.986 138.138 818.111 137.915 818.333C137.693 818.556 137.568 818.857 137.568 819.172V823.067H133.672C133.358 823.067 133.056 823.192 132.834 823.414C132.612 823.637 132.487 823.938 132.487 824.253V831.027C132.487 831.342 132.612 831.643 132.834 831.866C133.056 832.088 133.358 832.213 133.672 832.213ZM134.858 825.438H138.754C139.068 825.438 139.37 825.313 139.592 825.091C139.814 824.869 139.939 824.567 139.939 824.253V820.357H144.343V824.253C144.343 824.567 144.468 824.869 144.69 825.091C144.912 825.313 145.214 825.438 145.528 825.438H149.424V829.842H145.528C145.214 829.842 144.912 829.967 144.69 830.189C144.468 830.411 144.343 830.713 144.343 831.027V834.923H139.939V831.027C139.939 830.713 139.814 830.411 139.592 830.189C139.37 829.967 139.068 829.842 138.754 829.842H134.858V825.438Z" fill="#6BA1B4"/>
<path d="M137.695 849.867C138.01 849.867 138.311 849.742 138.534 849.52C138.756 849.297 138.881 848.996 138.881 848.681V841.907C138.881 841.592 138.756 841.291 138.534 841.068C138.311 840.846 138.01 840.721 137.695 840.721H130.92C130.606 840.721 130.304 840.846 130.082 841.068C129.86 841.291 129.735 841.592 129.735 841.907V848.681C129.735 848.996 129.86 849.297 130.082 849.52C130.304 849.742 130.606 849.867 130.92 849.867H137.695ZM132.106 843.092H136.51V847.496H132.106V843.092Z" fill="#6BA1B4"/>
<path d="M145.401 841.907V848.681C145.401 848.996 145.526 849.297 145.749 849.52C145.971 849.742 146.273 849.867 146.587 849.867H153.362C153.676 849.867 153.978 849.742 154.2 849.52C154.422 849.297 154.547 848.996 154.547 848.681V841.907C154.547 841.592 154.422 841.291 154.2 841.068C153.978 840.846 153.676 840.721 153.362 840.721H146.587C146.273 840.721 145.971 840.846 145.749 841.068C145.526 841.291 145.401 841.592 145.401 841.907ZM147.773 843.092H152.176V847.496H147.773V843.092Z" fill="#6BA1B4"/>
<path d="M181.096 829.973H162.804V807.186C162.804 806.871 162.679 806.57 162.457 806.347C162.234 806.125 161.933 806 161.618 806H122.663C122.349 806 122.047 806.125 121.825 806.347C121.602 806.57 121.478 806.871 121.478 807.186V829.973H103.186C102.871 829.973 102.57 830.098 102.347 830.32C102.125 830.542 102 830.844 102 831.158V885.096C102 885.41 102.125 885.712 102.347 885.934C102.57 886.157 102.871 886.282 103.186 886.282H181.096C181.41 886.282 181.712 886.157 181.934 885.934C182.157 885.712 182.282 885.41 182.282 885.096V831.158C182.282 830.844 182.157 830.542 181.934 830.32C181.712 830.098 181.41 829.973 181.096 829.973ZM104.371 832.344H121.478V883.91H104.371V832.344ZM123.849 831.158V808.371H160.433V883.91H152.662V858.127C152.662 857.812 152.537 857.511 152.315 857.288C152.092 857.066 151.791 856.941 151.476 856.941H132.805C132.491 856.941 132.189 857.066 131.967 857.288C131.744 857.511 131.619 857.812 131.619 858.127V883.91H123.849V831.158ZM133.991 859.312H140.955V883.91H133.991V859.312ZM143.326 883.91V859.312H150.291V883.91H143.326ZM179.91 883.91H162.804V832.344H179.91V883.91Z" fill="#6BA1B4"/>
<path d="M167.97 849.867H174.745C175.059 849.867 175.361 849.742 175.583 849.52C175.805 849.297 175.93 848.996 175.93 848.681V841.907C175.93 841.592 175.805 841.291 175.583 841.068C175.361 840.846 175.059 840.721 174.745 840.721H167.97C167.655 840.721 167.354 840.846 167.131 841.068C166.909 841.291 166.784 841.592 166.784 841.907V848.681C166.784 848.996 166.909 849.297 167.131 849.52C167.354 849.742 167.655 849.867 167.97 849.867ZM169.155 843.092H173.559V847.496H169.155V843.092Z" fill="#6BA1B4"/>
<path d="M167.97 864.563H174.745C175.059 864.563 175.361 864.438 175.583 864.216C175.805 863.993 175.93 863.692 175.93 863.377V856.602C175.93 856.288 175.805 855.986 175.583 855.764C175.361 855.542 175.059 855.417 174.745 855.417H167.97C167.655 855.417 167.354 855.542 167.131 855.764C166.909 855.986 166.784 856.288 166.784 856.602V863.377C166.784 863.692 166.909 863.993 167.131 864.216C167.354 864.438 167.655 864.563 167.97 864.563ZM169.155 857.788H173.559V862.192H169.155V857.788Z" fill="#6BA1B4"/>
<path d="M167.97 879.259H174.745C174.9 879.259 175.054 879.229 175.198 879.169C175.342 879.11 175.473 879.022 175.583 878.912C175.693 878.802 175.78 878.671 175.84 878.528C175.9 878.384 175.93 878.23 175.93 878.074V871.299C175.93 870.985 175.805 870.683 175.583 870.461C175.361 870.238 175.059 870.113 174.745 870.113H167.97C167.655 870.113 167.354 870.238 167.131 870.461C166.909 870.683 166.784 870.985 166.784 871.299V878.074C166.784 878.23 166.815 878.384 166.874 878.528C166.934 878.671 167.021 878.802 167.131 878.912C167.242 879.022 167.372 879.11 167.516 879.169C167.66 879.229 167.814 879.259 167.97 879.259ZM169.155 872.485H173.559V876.888H169.155V872.485Z" fill="#6BA1B4"/>
<path d="M116.312 840.721H109.537C109.223 840.721 108.921 840.846 108.699 841.068C108.476 841.291 108.352 841.592 108.352 841.907V848.681C108.352 848.996 108.476 849.297 108.699 849.52C108.921 849.742 109.223 849.867 109.537 849.867H116.312C116.626 849.867 116.928 849.742 117.15 849.52C117.373 849.297 117.498 848.996 117.498 848.681V841.907C117.498 841.592 117.373 841.291 117.15 841.068C116.928 840.846 116.626 840.721 116.312 840.721ZM115.126 847.496H110.723V843.092H115.126V847.496Z" fill="#6BA1B4"/>
<path d="M116.312 855.417H109.537C109.223 855.417 108.921 855.542 108.699 855.764C108.476 855.986 108.352 856.288 108.352 856.602V863.377C108.352 863.692 108.476 863.993 108.699 864.216C108.921 864.438 109.223 864.563 109.537 864.563H116.312C116.626 864.563 116.928 864.438 117.15 864.216C117.373 863.993 117.498 863.692 117.498 863.377V856.602C117.498 856.288 117.373 855.986 117.15 855.764C116.928 855.542 116.626 855.417 116.312 855.417ZM115.126 862.192H110.723V857.788H115.126V862.192Z" fill="#6BA1B4"/>
<path d="M116.312 870.113H109.537C109.223 870.113 108.921 870.238 108.699 870.461C108.476 870.683 108.352 870.985 108.352 871.299V878.074C108.352 878.23 108.382 878.384 108.442 878.528C108.501 878.671 108.589 878.802 108.699 878.912C108.809 879.022 108.94 879.11 109.083 879.169C109.227 879.229 109.381 879.259 109.537 879.259H116.312C116.468 879.259 116.622 879.229 116.766 879.169C116.91 879.11 117.04 879.022 117.15 878.912C117.26 878.802 117.348 878.671 117.407 878.528C117.467 878.384 117.498 878.23 117.498 878.074V871.299C117.498 870.985 117.373 870.683 117.15 870.461C116.928 870.238 116.626 870.113 116.312 870.113ZM115.126 876.888H110.723V872.485H115.126V876.888Z" fill="#6BA1B4"/>
<path d="M600.531 854.824C601.456 854.824 602.073 854.109 602.073 853.037V847.677H603.615C604.541 847.677 605.158 846.963 605.158 845.891V840.531H636.008C636.934 840.531 637.551 839.817 637.551 838.745V785.147C637.551 784.075 636.934 783.36 636.008 783.36H629.838V779.787C629.838 778.715 629.221 778 628.296 778H615.956C615.03 778 614.413 778.715 614.413 779.787V783.36H598.988V779.787C598.988 778.715 598.371 778 597.446 778H585.105C584.18 778 583.563 778.715 583.563 779.787V783.36H568.138V779.787C568.138 778.715 567.521 778 566.595 778H554.255C553.33 778 552.713 778.715 552.713 779.787V783.36H546.542C545.617 783.36 545 784.074 545 785.146V838.744C545 839.816 545.617 840.531 546.542 840.531H577.393V845.891C577.393 846.963 578.01 847.677 578.935 847.677H580.478V853.037C580.478 854.109 581.095 854.824 582.02 854.824H586.648V881.623H546.542C545.617 881.623 545 882.337 545 883.409C545 884.481 545.617 885.196 546.542 885.196H588.19H594.36H636.008C636.934 885.196 637.551 884.482 637.551 883.41C637.551 882.338 636.934 881.623 636.008 881.623H595.903V854.824L600.531 854.824ZM617.498 785.146V781.573H626.753V785.147V788.72H617.498V785.146ZM565.053 785.146V788.72H555.798V785.146V781.573H565.053V785.146ZM586.648 785.146V781.573H595.903V785.147V788.72H586.648V785.146ZM580.478 844.104V840.531H602.073V844.104H600.531H582.02H580.478ZM592.818 881.623H589.733V854.824H592.818V881.623ZM594.361 851.251H588.191H583.563V847.677H598.988V851.251H594.361Z" fill="#1DA7D6"/>
<path d="M1186.77 875.5C1187.76 875.5 1188.56 874.698 1188.56 873.711V830.789C1188.56 829.802 1187.76 829 1186.77 829H1152.79C1151.8 829 1151 829.802 1151 830.789V873.711C1151 874.698 1151.8 875.5 1152.79 875.5H1161.73V881.761H1158.15C1156.67 881.761 1155.47 882.965 1155.47 884.444V885.338C1155.47 885.833 1155.87 886.233 1156.36 886.233H1183.2C1183.69 886.233 1184.09 885.833 1184.09 885.338V884.444C1184.09 882.965 1182.89 881.761 1181.41 881.761H1177.83V875.5H1186.77ZM1152.79 830.789H1186.77L1186.77 873.711H1152.79V830.789ZM1158.15 883.55H1181.41C1181.9 883.55 1182.3 883.951 1182.3 884.444H1157.26C1157.26 883.951 1157.66 883.55 1158.15 883.55ZM1176.04 881.761H1163.52V875.5H1176.04V881.761Z" fill="#1DA7D6"/>
<rect x="1154.58" y="832.465" width="30.5166" height="39.6828" rx="2" fill="#1DA7D6"/>
<line x1="2.93479e-07" y1="957.016" x2="180.823" y2="957.016" stroke="#6BA1B4" stroke-width="5"/>
<line x1="315.437" y1="957.016" x2="496.26" y2="957.016" stroke="#6BA1B4" stroke-width="5"/>
<line x1="630.873" y1="957.016" x2="811.697" y2="957.016" stroke="#6BA1B4" stroke-width="5"/>
<line x1="946.309" y1="957.016" x2="1127.13" y2="957.016" stroke="#6BA1B4" stroke-width="5"/>
<line x1="1261.75" y1="957.016" x2="1442.57" y2="957.016" stroke="#6BA1B4" stroke-width="5"/>
<path d="M1201.1 726.532V729.124C1206.49 729.124 1210.87 733.502 1210.87 738.892H1213.46C1213.46 732.08 1207.91 726.532 1201.1 726.532Z" fill="#6BA1B4"/>
<path d="M1218.98 738.291C1218.66 728.697 1210.76 721 1201.09 721C1196.66 721 1192.46 722.612 1189.17 725.552C1188.09 725.283 1186.99 725.157 1185.87 725.157C1184.68 725.157 1183.54 725.315 1182.45 725.599C1180.07 722.723 1176.52 721 1172.76 721C1169.73 721 1166.84 722.075 1164.54 724.066C1163.85 723.908 1163.12 723.829 1162.41 723.829C1157.26 723.829 1153.02 727.844 1152.66 732.902C1149.29 734.182 1147 737.454 1147 741.12C1147 745.989 1150.97 749.956 1155.84 749.956H1163.83C1163.83 756.768 1169.38 762.316 1176.19 762.316H1214.93C1221.74 762.316 1227.29 756.768 1227.29 749.956C1227.29 744.677 1223.93 740.014 1218.98 738.291ZM1155.84 747.364C1152.39 747.364 1149.59 744.566 1149.59 741.12C1149.59 738.275 1151.52 735.794 1154.29 735.083L1155.28 734.83L1155.23 733.581C1155.23 729.614 1158.46 726.406 1162.41 726.406C1164.07 726.406 1165.26 726.943 1165.26 726.943L1165.81 726.406C1167.69 724.572 1170.16 723.576 1172.78 723.576C1175.45 723.576 1177.99 724.667 1179.86 726.548C1175.47 728.697 1172.37 733.123 1172.15 738.291C1168.04 739.714 1165.02 743.191 1164.12 747.364H1155.84ZM1214.93 759.724H1176.19C1170.8 759.724 1166.43 755.345 1166.43 749.956C1166.43 745.514 1169.44 741.626 1173.77 740.504L1174.77 740.251L1174.74 738.892C1174.74 732.744 1179.75 727.733 1185.9 727.733C1187 727.733 1188.11 727.891 1189.17 728.223L1189.9 728.444L1190.45 727.907C1193.33 725.109 1197.12 723.576 1201.1 723.576C1209.54 723.576 1216.4 730.436 1216.4 738.987L1216.37 740.235L1217.37 740.488C1221.7 741.61 1224.72 745.499 1224.72 749.94C1224.7 755.345 1220.32 759.724 1214.93 759.724Z" fill="#6BA1B4"/>
<path d="M380.885 686.692V689.828C387.405 689.828 392.701 695.124 392.701 701.643H395.837C395.837 693.403 389.126 686.692 380.885 686.692Z" fill="#6BA1B4"/>
<path d="M402.509 700.917C402.127 689.311 392.567 680 380.866 680C375.512 680 370.427 681.95 366.45 685.506C365.15 685.181 363.811 685.028 362.454 685.028C361.02 685.028 359.643 685.22 358.324 685.564C355.437 682.084 351.154 680 346.603 680C342.933 680 339.434 681.3 336.661 683.709C335.82 683.518 334.941 683.422 334.08 683.422C327.847 683.422 322.723 688.279 322.283 694.397C318.211 695.946 315.438 699.904 315.438 704.339C315.438 710.228 320.238 715.027 326.126 715.027H335.801C335.801 723.268 342.512 729.979 350.752 729.979H397.615C405.855 729.979 412.566 723.268 412.566 715.027C412.566 708.641 408.494 703.001 402.509 700.917ZM326.126 711.892C321.958 711.892 318.574 708.507 318.574 704.339C318.574 700.898 320.907 697.896 324.253 697.036L325.457 696.73L325.4 695.219C325.4 690.42 329.3 686.539 334.08 686.539C336.088 686.539 337.522 687.189 337.522 687.189L338.191 686.539C340.466 684.321 343.449 683.117 346.623 683.117C349.854 683.117 352.932 684.436 355.188 686.711C349.873 689.311 346.125 694.665 345.858 700.917C340.887 702.638 337.235 706.844 336.145 711.892H326.126ZM397.615 726.843H350.752C344.233 726.843 338.937 721.547 338.937 715.027C338.937 709.655 342.588 704.951 347.827 703.594L349.032 703.288L348.993 701.643C348.993 694.206 355.054 688.145 362.492 688.145C363.83 688.145 365.169 688.336 366.45 688.738L367.329 689.005L367.998 688.355C371.478 684.971 376.067 683.117 380.885 683.117C391.095 683.117 399.393 691.414 399.393 701.758L399.355 703.269L400.559 703.575C405.798 704.932 409.45 709.635 409.45 715.008C409.431 721.547 404.134 726.843 397.615 726.843Z" fill="#6BA1B4"/>
<path d="M724.789 721.476C724.262 721.476 723.735 721.508 723.212 721.571C721.79 716.925 717.521 713.749 712.679 713.74C711.474 713.738 710.277 713.939 709.139 714.333C706.319 708.213 699.637 704.887 693.078 706.338C686.518 707.79 681.85 713.628 681.854 720.37C681.855 721.536 681.999 722.696 682.283 723.825C676.034 724.783 671.569 730.406 672.033 736.735C672.497 743.065 677.734 747.972 684.056 748H724.789C732.086 748 738 742.062 738 734.738C738 727.413 732.086 721.476 724.789 721.476ZM724.789 745.789H684.056C678.628 745.813 674.193 741.446 674.112 735.998C674.032 730.549 678.335 726.052 683.761 725.913C684.113 725.903 684.439 725.725 684.638 725.433C684.838 725.141 684.886 724.771 684.767 724.438C682.582 718.16 685.832 711.286 692.059 709.016C698.285 706.746 705.172 709.926 707.508 716.149C707.615 716.438 707.836 716.668 708.12 716.786C708.404 716.903 708.723 716.897 709.001 716.768C710.153 716.23 711.409 715.951 712.679 715.95C716.868 715.957 720.475 718.919 721.312 723.039C721.431 723.639 722.013 724.026 722.608 723.905C723.326 723.76 724.056 723.687 724.789 723.686C730.87 723.686 735.798 728.635 735.798 734.738C735.798 740.841 730.87 745.789 724.789 745.789Z" fill="#6BA1B4"/>
<path d="M1388.79 773.686C1388.42 773.686 1388.06 773.708 1387.69 773.751C1386.7 770.543 1383.73 768.351 1380.35 768.344C1379.51 768.343 1378.68 768.482 1377.88 768.754C1375.92 764.528 1371.26 762.231 1366.69 763.233C1362.12 764.236 1358.86 768.267 1358.87 772.922C1358.87 773.727 1358.97 774.528 1359.17 775.308C1354.81 775.969 1351.7 779.852 1352.02 784.222C1352.35 788.593 1356 791.981 1360.4 792H1388.79C1393.88 792 1398 787.9 1398 782.843C1398 777.785 1393.88 773.686 1388.79 773.686ZM1388.79 790.474H1360.4C1356.62 790.49 1353.53 787.474 1353.47 783.713C1353.42 779.951 1356.42 776.845 1360.2 776.75C1360.44 776.743 1360.67 776.619 1360.81 776.418C1360.95 776.216 1360.98 775.961 1360.9 775.731C1359.38 771.396 1361.64 766.65 1365.98 765.082C1370.32 763.515 1375.12 765.711 1376.75 770.008C1376.82 770.207 1376.98 770.366 1377.17 770.447C1377.37 770.528 1377.59 770.524 1377.79 770.435C1378.59 770.063 1379.47 769.871 1380.35 769.87C1383.27 769.875 1385.79 771.92 1386.37 774.765C1386.45 775.179 1386.86 775.446 1387.27 775.363C1387.77 775.263 1388.28 775.212 1388.79 775.212C1393.03 775.212 1396.47 778.629 1396.47 782.843C1396.47 787.057 1393.03 790.474 1388.79 790.474Z" fill="#6BA1B4"/>
<path d="M988.006 677.58C988.326 677.58 988.645 677.6 988.963 677.639C989.824 674.763 992.412 672.797 995.346 672.791C996.076 672.79 996.802 672.915 997.492 673.159C999.201 669.37 1003.25 667.311 1007.23 668.209C1011.2 669.108 1014.03 672.722 1014.03 676.896C1014.03 677.617 1013.94 678.336 1013.77 679.035C1017.56 679.628 1020.26 683.108 1019.98 687.027C1019.7 690.945 1016.52 693.983 1012.69 694H988.006C983.585 694 980 690.324 980 685.79C980 681.256 983.585 677.58 988.006 677.58ZM988.006 692.632H1012.69C1015.98 692.646 1018.67 689.943 1018.72 686.57C1018.77 683.197 1016.16 680.413 1012.87 680.327C1012.66 680.321 1012.46 680.21 1012.34 680.03C1012.22 679.849 1012.19 679.62 1012.26 679.414C1013.59 675.528 1011.62 671.272 1007.84 669.867C1004.07 668.462 999.895 670.43 998.48 674.283C998.415 674.461 998.281 674.604 998.109 674.677C997.937 674.75 997.744 674.746 997.575 674.666C996.877 674.333 996.116 674.16 995.346 674.159C992.807 674.164 990.621 675.998 990.114 678.548C990.042 678.919 989.689 679.159 989.328 679.084C988.893 678.995 988.451 678.949 988.006 678.949C984.321 678.949 981.334 682.012 981.334 685.79C981.334 689.569 984.321 692.632 988.006 692.632Z" fill="#6BA1B4"/>
<path d="M101.408 724.159C101.824 724.16 102.239 724.185 102.651 724.234C103.771 720.584 107.135 718.089 110.95 718.081C111.899 718.08 112.842 718.238 113.739 718.547C115.961 713.739 121.225 711.125 126.393 712.266C131.561 713.406 135.24 717.993 135.236 723.291C135.236 724.207 135.122 725.118 134.898 726.006C139.822 726.758 143.34 731.176 142.974 736.149C142.608 741.123 138.482 744.978 133.501 745H101.408C95.6599 745 91 740.335 91 734.58C91 728.825 95.6599 724.159 101.408 724.159ZM101.408 743.263H133.501C137.778 743.282 141.272 739.85 141.336 735.57C141.399 731.289 138.009 727.755 133.734 727.646C133.456 727.638 133.2 727.498 133.043 727.269C132.885 727.039 132.848 726.749 132.941 726.487C134.663 721.554 132.102 716.153 127.196 714.37C122.29 712.586 116.864 715.085 115.024 719.974C114.94 720.201 114.765 720.382 114.542 720.474C114.318 720.567 114.067 720.562 113.848 720.46C112.94 720.038 111.951 719.819 110.95 719.818C107.65 719.824 104.808 722.151 104.149 725.388C104.054 725.859 103.596 726.163 103.127 726.068C102.561 725.955 101.986 725.897 101.408 725.896C96.6179 725.896 92.7346 729.784 92.7346 734.58C92.7346 739.375 96.6179 743.263 101.408 743.263Z" fill="#6BA1B4"/>
<path d="M228.794 902.988C230.676 902.988 232.434 901.797 233.059 899.894L229.824 898.764L235.898 898.988C235.912 898.988 235.925 898.988 235.939 898.988C236.517 898.988 236.996 898.53 237.017 897.948C237.039 897.352 236.574 896.851 235.978 896.829L232.918 896.716C232.19 895.026 230.537 894 228.791 894C225.627 894 223.449 897.201 224.615 900.147C225.313 901.912 227.005 902.988 228.794 902.988Z" fill="#1DA7D6"/>
<path d="M222.261 933.927C218.014 933.927 214.57 937.371 214.57 941.618C214.57 945.866 218.014 949.31 222.261 949.31C226.509 949.31 229.953 945.866 229.953 941.618C229.952 937.371 226.509 933.927 222.261 933.927ZM222.261 944.159C220.858 944.159 219.721 943.021 219.721 941.618C219.721 940.215 220.858 939.078 222.261 939.078C223.664 939.078 224.802 940.215 224.802 941.618C224.802 943.021 223.664 944.159 222.261 944.159Z" fill="#1DA7D6"/>
<path d="M248.472 933.927C244.224 933.927 240.781 937.371 240.781 941.618C240.781 945.866 244.224 949.31 248.472 949.31C252.72 949.31 256.163 945.866 256.163 941.618C256.163 937.371 252.72 933.927 248.472 933.927ZM248.472 944.159C247.069 944.159 245.931 943.021 245.931 941.618C245.931 940.215 247.069 939.078 248.472 939.078C249.875 939.078 251.013 940.215 251.013 941.618C251.013 943.021 249.875 944.159 248.472 944.159Z" fill="#1DA7D6"/>
<path d="M254.435 929.492C254.973 922.41 248.472 919.515 248.472 919.515L246.91 916.391L246.4 914.361H248.425C249.433 914.361 250.289 913.536 250.27 912.528C250.251 911.551 249.453 910.765 248.472 910.765H244.096C243.895 910.765 243.698 910.799 243.512 910.863C243.888 910.359 244.042 909.697 243.878 909.04C243.588 907.877 242.409 907.17 241.246 907.461L233.633 909.3V908.979C233.633 907.334 232.299 906 230.654 906H225.198C223.553 906 222.219 907.333 222.219 908.979V924.189H219.617C220.358 924.189 220.958 923.589 220.958 922.848V910.169C220.958 909.428 220.358 908.827 219.617 908.827H209.796C209.055 908.827 208.455 909.428 208.455 910.169V922.848C208.455 923.589 209.055 924.189 209.796 924.189H213.266C212.709 924.189 212.257 924.641 212.257 925.198V929.653C212.257 930.21 212.709 930.662 213.266 930.662H214.523C211.094 932.844 208.713 936.382 208.029 940.43C207.814 941.705 208.81 942.863 210.103 942.863C211.13 942.863 211.999 942.117 212.174 941.104C213.003 936.289 217.21 932.612 222.261 932.612C227.91 932.612 232.506 937.212 232.497 942.863H238.237C238.234 941.246 238.612 939.612 239.412 938.093H237.603C237.986 937.835 238.306 937.473 238.513 937.023L243.56 926.055C244.283 924.483 243.301 922.648 241.586 922.383L233.633 921.156V917.444C233.184 917.345 232.423 917.473 231.828 916.822L227.621 912.207L232.651 915.605C232.937 915.798 233.265 915.92 233.608 915.961C242.271 916.992 241.8 916.955 242.047 916.955C243.131 916.955 244.067 916.145 244.199 915.042C244.341 913.852 243.492 912.772 242.302 912.63L234.644 911.714L230.05 908.611L234.298 910.193L242.404 911.163C244.407 911.402 245.909 913.245 245.654 915.246C245.492 916.513 244.695 917.545 243.622 918.063L246.725 930.439C246.925 931.241 247.641 931.816 248.467 931.815C254.539 931.813 259.48 936.746 259.491 942.814V942.848C259.491 943.841 260.295 944.646 261.288 944.646C262.268 944.646 263.064 943.863 263.086 942.889C263.086 942.871 263.086 942.851 263.086 942.834C263.086 936.898 259.529 931.778 254.435 929.492ZM234.517 930.662C235.074 930.662 235.526 930.21 235.526 929.653V926.732L237.369 927.016L233.968 934.406C232.896 932.921 231.548 931.648 229.999 930.662H234.517Z" fill="#1DA7D6"/>
<path d="M1047.9 989.672C1047.76 988.001 1047.6 986.11 1047.3 984.478C1047.09 983.337 1046.62 981.817 1045.06 981.817C1044.9 981.817 1044.74 981.832 1044.59 981.848C1044.49 981.858 1044.39 981.871 1044.23 981.874C1044.23 981.874 1044.18 981.824 1044.12 981.637C1043.66 980.319 1041.73 978.679 1039.25 976.675C1038.64 976.183 1037.91 975.59 1037.6 975.284C1037.71 974.495 1037.7 973.525 1037.15 972.857C1036.89 972.545 1036.41 972.172 1035.58 972.172C1035.46 972.172 1035.33 972.18 1035.04 972.205C1034.45 972.205 1033.25 971.96 1031.59 971.617C1027.32 970.74 1019.36 969.105 1007.43 968.848C990.054 968.504 976.402 981.041 975.839 981.569L975.437 981.943C974.723 982.288 972.47 983.112 965.583 984.466C955.815 986.389 953.951 989.501 953.599 990.705C952.82 991.287 951.557 992.675 951.357 994.309C951.196 995.611 950.832 996.144 950.832 996.142L950.663 996.36V1005.55L950.682 1005.72C951.212 1008.16 953.742 1009.45 957.999 1009.45C959.357 1009.45 960.375 1009.32 960.336 1009.32C960.395 1009.31 960.92 1009.3 961.83 1009.28C961.737 1009.03 961.652 1008.77 961.579 1008.5C961.508 1008.24 961.443 1007.99 961.393 1007.72C961.273 1007.1 961.206 1006.45 961.206 1005.8C961.206 1000.15 965.802 995.55 971.452 995.55C977.101 995.55 981.698 1000.15 981.698 1005.8C981.698 1006.31 981.648 1006.8 981.577 1007.29C981.537 1007.56 981.492 1007.82 981.432 1008.08C981.37 1008.35 981.306 1008.62 981.224 1008.88C994.019 1008.6 1010.3 1008.24 1022.91 1007.92C1022.85 1007.66 1022.82 1007.4 1022.78 1007.14C1022.75 1006.88 1022.73 1006.61 1022.71 1006.35C1022.7 1006.17 1022.69 1005.98 1022.69 1005.8C1022.69 1000.15 1027.28 995.55 1032.93 995.55C1038.5 995.55 1043.04 1000.02 1043.17 1005.56C1043.17 1005.64 1043.18 1005.72 1043.18 1005.8C1043.18 1005.99 1043.16 1006.19 1043.15 1006.39C1043.13 1006.67 1043.1 1006.94 1043.07 1007.22C1045.47 1006.82 1047.29 1005.55 1048.33 1003.5C1050.13 999.992 1049.21 995.242 1048.57 994.233C1048.22 993.687 1048.05 991.554 1047.9 989.672Z" fill="#1DA7D6"/>
<path d="M963.5 1009.25C964.835 1012.32 967.89 1014.46 971.451 1014.46C975.139 1014.46 978.281 1012.16 979.534 1008.91C979.633 1008.65 979.722 1008.39 979.797 1008.12C979.87 1007.86 979.93 1007.59 979.979 1007.33C980.067 1006.83 980.122 1006.32 980.122 1005.79C980.122 1001.01 976.241 997.125 971.452 997.125C966.663 997.125 962.782 1001.01 962.782 1005.79C962.782 1006.44 962.859 1007.08 962.995 1007.69C963.053 1007.95 963.122 1008.21 963.206 1008.47C963.292 1008.73 963.39 1008.99 963.5 1009.25Z" fill="#1DA7D6"/>
<path d="M1024.52 1007.88C1025.46 1011.66 1028.86 1014.46 1032.93 1014.46C1037.18 1014.46 1040.71 1011.4 1041.45 1007.36C1041.5 1007.1 1041.53 1006.84 1041.56 1006.57C1041.58 1006.31 1041.6 1006.06 1041.6 1005.79C1041.6 1005.79 1041.6 1005.78 1041.6 1005.77C1041.59 1001 1037.71 997.124 1032.93 997.124C1028.14 997.124 1024.26 1001.01 1024.26 1005.79C1024.26 1005.97 1024.28 1006.14 1024.29 1006.31C1024.3 1006.58 1024.33 1006.84 1024.37 1007.1C1024.41 1007.36 1024.46 1007.62 1024.52 1007.88Z" fill="#1DA7D6"/>
<path d="M249.518 825.433C249.488 825.596 249.472 825.761 249.466 825.927V829.321C249.47 830.72 250.339 831.97 251.65 832.462V837.456C251.656 839.128 252.971 840.503 254.641 840.582V869.435C252.971 869.515 251.656 870.889 251.65 872.561V877.54C250.337 878.045 249.468 879.305 249.466 880.711V884.031C249.466 884.65 249.969 885.152 250.588 885.152H326.226C326.845 885.152 327.347 884.65 327.347 884.031V880.711C327.345 879.304 326.476 878.044 325.164 877.54V872.531C325.158 870.859 323.842 869.485 322.173 869.406V840.582C323.842 840.503 325.158 839.128 325.164 837.456V832.462C326.474 831.97 327.342 830.72 327.347 829.321V825.949C327.342 825.784 327.324 825.619 327.294 825.455C327.858 825.705 328.518 825.451 328.767 824.887C329.017 824.324 328.763 823.665 328.2 823.414L288.923 802.771C288.595 802.598 288.203 802.598 287.876 802.771L248.599 823.392C248.051 823.681 247.841 824.359 248.129 824.907C248.393 825.408 248.989 825.634 249.518 825.433ZM253.893 834.405V832.678H266.828V834.391L253.893 834.405ZM282.694 840.589V869.435C281.024 869.515 279.709 870.889 279.703 872.561V877.331H269.056V872.561C269.05 870.889 267.735 869.515 266.065 869.435V840.582C267.735 840.503 269.05 839.128 269.056 837.456V832.678H279.688V837.449C279.691 839.124 281.007 840.502 282.679 840.582L282.694 840.589ZM281.946 834.405V832.678H294.882V834.391L281.946 834.405ZM310.748 840.589V869.435C309.078 869.515 307.763 870.889 307.757 872.561V877.331H297.11V872.561C297.104 870.889 295.788 869.515 294.119 869.435V840.582C295.788 840.503 297.104 839.128 297.11 837.456V832.678H307.742V837.449C307.744 839.124 309.06 840.502 310.733 840.582L310.748 840.589ZM310 834.405V832.678H322.935V834.391L310 834.405ZM322.935 875.619V877.331H309.985V875.619H322.935ZM294.882 875.619V877.331H281.932V875.619H294.882ZM283.801 838.361H282.829C282.333 838.361 281.932 837.96 281.932 837.464V836.649H294.867V837.464C294.867 837.96 294.465 838.361 293.969 838.361H283.801ZM291.883 840.604V869.421H284.922V840.604H291.883ZM283.801 871.664H293.969C294.465 871.664 294.867 872.065 294.867 872.561V873.376H281.932V872.561C281.932 872.065 282.333 871.664 282.829 871.664H283.801ZM266.813 875.619V877.331H253.878V875.619H266.813ZM253.878 837.486V836.649H266.813V837.464C266.813 837.96 266.412 838.361 265.915 838.361H254.752C254.263 838.349 253.873 837.946 253.878 837.456V837.486ZM263.822 840.626V869.421H256.868V840.604L263.822 840.626ZM253.878 872.584C253.878 872.087 254.279 871.686 254.775 871.686H265.915C266.412 871.686 266.813 872.087 266.813 872.584V873.398H253.878V872.584ZM325.104 880.756V882.954H251.694V880.756C251.694 880.116 252.213 879.597 252.853 879.597H323.945C324.576 879.597 325.092 880.102 325.104 880.733V880.756ZM322.921 872.584V873.398H309.985V872.584C309.985 872.087 310.387 871.686 310.882 871.686H322.046C322.524 871.698 322.909 872.082 322.921 872.561V872.584ZM312.976 869.443V840.604H319.937V869.421L312.976 869.443ZM322.921 837.486C322.921 837.982 322.519 838.383 322.024 838.383H310.89C310.394 838.383 309.993 837.982 309.993 837.486V836.649H322.928L322.921 837.486ZM288.399 805.014L321.799 822.569H254.999L288.399 805.014ZM251.694 825.949C251.694 825.33 252.197 824.828 252.816 824.828H323.982C324.601 824.828 325.104 825.33 325.104 825.949V829.344C325.104 829.963 324.601 830.465 323.982 830.465H252.816C252.197 830.465 251.694 829.963 251.694 829.344V825.949Z" fill="#6BA1B4"/>
<path d="M0 884L1465 884" stroke="#6BA1B4" stroke-width="5"/></g>
<defs>
<linearGradient id="paint0_linear" x1="710" y1="-9" x2="710" y2="670" gradientUnits="userSpaceOnUse">
<stop stop-color="#E8F8F8"/>
<stop offset="0.75" stop-color="#F2F4F4"/>
</linearGradient>
<clipPath id="clip0">
<rect width="1440" height="1024" fill="white"/>
</clipPath>
</defs>
</svg>